<?xml version="1.0" encoding="UTF-8" standalone="no"?>
<svg width="84px" height="84px" viewBox="0 0 84 84" version="1.1" xmlns="http://www.w3.org/2000/svg" xmlns:xlink="http://www.w3.org/1999/xlink">
    <!-- Generator: Sketch 3.8.3 (29802) - http://www.bohemiancoding.com/sketch -->
    <title>empathy</title>
    <desc>Created with Sketch.</desc>
    <defs></defs>
    <g id="powers" stroke="none" stroke-width="1" fill="none" fill-rule="evenodd">
        <g transform="translate(-444.000000, -794.000000)" id="icons" stroke="#254054">
            <g transform="translate(109.000000, 186.000000)">
                <g id="row4" transform="translate(19.000000, 610.000000)">
                    <g id="empathy" transform="translate(318.000000, 0.000000)">
                        <g>
                            <circle id="Oval-44" stroke-width="4" fill="#FFFFFF" cx="40" cy="40" r="40"></circle>
                            <g transform="translate(13.000000, 14.000000)">
                                <path d="M27.9153197,20.5016186 C28.9261791,17.4581599 32.142907,15.6590909 34.7826032,15.6590909 C39.9631674,15.6590909 42.3029602,18.3308303 41.9687041,22.8393906 C41.8029904,30.1244958 27.8852942,40.80283 27.6,40.5485726 C27.3147058,40.80283 13.3970096,30.1244958 13.2312959,22.8393906 C12.8970398,18.3308303 15.2368326,15.6590909 20.4173968,15.6590909 C23.057093,15.6590909 26.2738209,17.4581599 27.2846803,20.5016186 L27.9153197,20.5016186 Z" id="Combined-Shape" stroke-width="2"></path>
                                <path id="Path-21-Copy-3" stroke-width="1.2" stroke-linecap="round"></path>
                                <path id="Path-21-Copy-4" stroke-width="1.2" stroke-linecap="round"></path>
                                <g id="Group" transform="translate(5.200000, 0.000000)" stroke-width="2" stroke-linecap="round">
                                    <path d="M22,6.19002525 L22,0.16729798" id="Path-21"></path>
                                    <path d="M40.1055649,11.9999365 L44.3545855,7.74122516" id="Path-21-Copy"></path>
                                    <path d="M0.0454145131,11.9999365 L4.29443511,7.74122516" id="Path-21-Copy-2" transform="translate(2.169925, 9.870581) scale(-1, 1) translate(-2.169925, -9.870581) "></path>
                                </g>
                                <g id="Group-Copy" transform="translate(27.100000, 47.000000) rotate(-180.000000) translate(-27.100000, -47.000000) translate(4.600000, 41.000000)" stroke-width="2" stroke-linecap="round">
                                    <path d="M22,6.19002525 L22,0.16729798" id="Path-21"></path>
                                    <path d="M40.1055649,11.9999365 L44.3545855,7.74122516" id="Path-21-Copy"></path>
                                    <path d="M0.0454145131,11.9999365 L4.29443511,7.74122516" id="Path-21-Copy-2" transform="translate(2.169925, 9.870581) scale(-1, 1) translate(-2.169925, -9.870581) "></path>
                                </g>
                            </g>
                        </g>
                    </g>
                </g>
            </g>
        </g>
    </g>
</svg>