<?xml version="1.0" encoding="UTF-8" standalone="no"?>
<svg width="84px" height="84px" viewBox="0 0 84 84" version="1.1" xmlns="http://www.w3.org/2000/svg" xmlns:xlink="http://www.w3.org/1999/xlink">
    <!-- Generator: Sketch 3.8.3 (29802) - http://www.bohemiancoding.com/sketch -->
    <title>curiosity</title>
    <desc>Created with Sketch.</desc>
    <defs></defs>
    <g id="powers" stroke="none" stroke-width="1" fill="none" fill-rule="evenodd">
        <g transform="translate(-1058.000000, -794.000000)" id="icons" stroke="#254054">
            <g transform="translate(109.000000, 186.000000)">
                <g id="row4" transform="translate(19.000000, 610.000000)">
                    <g id="curiosity" transform="translate(930.000000, 0.000000)">
                        <g transform="translate(2.000000, 0.000000)">
                            <circle id="Oval-44" stroke-width="4" fill="#FFFFFF" cx="40" cy="40" r="40"></circle>
                            <path d="M37.0821918,27.8181818 C37.1849315,25.5 38.5205479,24.3409091 40.7465753,24.3409091 C42.869863,24.3409091 44.2739726,25.2954545 44.2739726,27.2727273 C44.2739726,31.3977273 39.5136986,31.4318182 39.5136986,36.9204545 L42.5273973,36.9204545 C42.5273973,32.3181818 47.9383562,32.0795455 47.9383562,26.6931818 C47.9383562,22.9772727 45.1986301,21 41.0890411,21 C36.8424658,21 34.1369863,23.4545455 34,27.7840909 L37.0821918,27.8181818 Z M40.9863014,40.5 C39.7534247,40.5 38.8287671,41.4204545 38.8287671,42.7159091 C38.8287671,44.0454545 39.7534247,45 40.9863014,45 C42.2191781,45 43.1438356,44.0454545 43.1438356,42.7159091 C43.1438356,41.4204545 42.2191781,40.5 40.9863014,40.5 L40.9863014,40.5 Z" id="?" stroke-width="2" fill="#FFFFFF"></path>
                            <path d="M36.2540301,61.8159961 C36.5666082,62.7759516 37.5889081,63.2471302 38.5324618,62.8695086 C38.5324618,62.8695086 53.1547792,57.0453791 54.4732042,56.2343025 C55.7916293,55.423226 53.9596351,54.8062185 54.5894952,52.6226074 C55.2193553,50.4389963 55.4094349,47.3301064 59.3208247,43.2947649 C63.2322145,39.2594235 63.6206381,32.3755367 62.3526536,28.3859315 C61.0846691,24.3963262 57.8302936,18.5866542 48.7908863,16.0905123 C39.7514791,13.5943703 30.0804409,15.6067638 25.373314,19.8578864 C20.6661872,24.109009 19.9595869,30.6774331 20.7470596,33.3447927 C21.5345323,36.0121522 22.3155116,37.5894653 20.3332527,41.2014535 C18.3509939,44.8134418 17.4729087,44.8140282 18.32443,45.7979432 C19.1576516,46.7528333 19.4076477,45.9023156 20.6419845,46.6780721 C21.8763214,47.4538287 20.5955195,48.9699045 20.9766899,49.754419 C21.3578604,50.5389334 22.7665079,50.1194292 22.6088953,50.7263136 C22.56415,50.8986044 22.6398866,51.4232045 22.6398866,51.4232045 C22.6398866,51.4232045 21.3113153,52.5898968 22.1390091,53.3807731 C23.4291302,54.3025338 23.5439453,54.5329739 23.3863327,56.9663751 C23.2287201,59.3997763 26.2139146,60.2025055 31.2746367,59.5498849 C36.3353588,58.8972643 36.2540301,61.8159961 36.2540301,61.8159961 Z" id="Path-3" stroke-width="2.1"></path>
                        </g>
                    </g>
                </g>
            </g>
        </g>
    </g>
</svg>