<?xml version="1.0" encoding="UTF-8" standalone="no"?>
<svg width="84px" height="85px" viewBox="0 0 84 85" version="1.1" xmlns="http://www.w3.org/2000/svg" xmlns:xlink="http://www.w3.org/1999/xlink">
    <!-- Generator: Sketch 3.8.3 (29802) - http://www.bohemiancoding.com/sketch -->
    <title>generousity</title>
    <desc>Created with Sketch.</desc>
    <defs>
        <rect id="path-1" x="1.46153846" y="18.1487603" width="35.0769231" height="17.8512397"></rect>
        <mask id="mask-2" maskContentUnits="userSpaceOnUse" maskUnits="objectBoundingBox" x="0" y="0" width="35.0769231" height="17.8512397" fill="white">
            <use xlink:href="#path-1"></use>
        </mask>
        <rect id="path-3" x="0" y="8.92561983" width="38" height="7.73553719"></rect>
        <mask id="mask-4" maskContentUnits="userSpaceOnUse" maskUnits="objectBoundingBox" x="0" y="0" width="38" height="7.73553719" fill="white">
            <use xlink:href="#path-3"></use>
        </mask>
    </defs>
    <g id="powers" stroke="none" stroke-width="1" fill="none" fill-rule="evenodd">
        <g transform="translate(-1059.000000, -387.000000)" id="icons" stroke="#254054">
            <g transform="translate(109.000000, 186.000000)">
                <g id="row2" transform="translate(0.000000, 203.333333)">
                    <g id="generousity" transform="translate(901.000000, 0.000000)">
                        <g id="generousity-">
                            <g id="generousity" transform="translate(51.000000, 0.000000)">
                                <circle id="Oval-44" stroke-width="4" fill="#FFFFFF" cx="40" cy="40" r="40"></circle>
                                <g id="generosity" transform="translate(21.000000, 22.000000)">
                                    <use id="Rectangle-11" mask="url(#mask-2)" stroke-width="4" xlink:href="#path-1"></use>
                                    <use id="Rectangle-11-Copy" mask="url(#mask-4)" stroke-width="4" transform="translate(19.000000, 12.793388) scale(1, -1) translate(-19.000000, -12.793388) " xlink:href="#path-3"></use>
                                    <path d="M15,9.52066116 L15,16.0661157" id="Path-9" stroke-width="2"></path>
                                    <path d="M23,9.52066116 L23,16.0661157" id="Path-9-Copy" stroke-width="2"></path>
                                    <path d="M15,18.446281 L15,35.107438" id="Path-9-Copy-3" stroke-width="2"></path>
                                    <path d="M23,18.446281 L23,35.107438" id="Path-9-Copy-2" stroke-width="2"></path>
                                    <path d="M18.9755342,6.16497675 C18.3057495,6.94516634 17.3209604,7.43801653 16.2230769,7.43801653 C14.2051134,7.43801653 12.5692308,5.77295981 12.5692308,3.71900826 C12.5692308,1.66505672 14.2051134,0 16.2230769,0 C18.0110761,0 19.4991153,1.30718493 19.8150451,3.03385162 C20.1726064,2.80805787 20.5944219,2.67768595 21.0461538,2.67768595 C22.3376505,2.67768595 23.3846154,3.74332225 23.3846154,5.05785124 C23.3846154,6.37238023 22.3376505,7.43801653 21.0461538,7.43801653 C20.1473616,7.43801653 19.367001,6.92190801 18.9755342,6.16497675 Z" id="Combined-Shape" stroke-width="2"></path>
                                </g>
                            </g>
                        </g>
                    </g>
                </g>
            </g>
        </g>
    </g>
</svg>