<?xml version="1.0" encoding="UTF-8" standalone="no"?>
<svg width="84px" height="84px" viewBox="0 0 84 84" version="1.1" xmlns="http://www.w3.org/2000/svg" xmlns:xlink="http://www.w3.org/1999/xlink">
    <!-- Generator: Sketch 3.8.3 (29802) - http://www.bohemiancoding.com/sketch -->
    <title>ideation</title>
    <desc>Created with Sketch.</desc>
    <defs></defs>
    <g id="powers" stroke="none" stroke-width="1" fill="none" fill-rule="evenodd">
        <g transform="translate(-444.000000, -184.000000)" id="icons" stroke="#254054">
            <g transform="translate(109.000000, 186.000000)">
                <g id="row1" transform="translate(18.000000, 0.000000)">
                    <g id="ideation" transform="translate(319.000000, 0.000000)">
                        <g>
                            <g>
                                <circle id="Oval-44" stroke-width="4" fill="#FFFFFF" cx="40" cy="40" r="40"></circle>
                                <g transform="translate(24.000000, 15.000000)">
                                    <path d="M27.8359584,23.4845054 C29.2093437,21.1477267 30,18.4059551 30,15.4736842 C30,6.9278044 23.2842712,0 15,0 C6.71572875,0 0,6.9278044 0,15.4736842 C0,18.4588306 0.819428123,21.2465456 2.23890466,23.6105215 L6.06981102,33.1790495 C6.57579894,34.4428652 8.08297392,35.4605263 9.43957049,35.4605263 L20.5848401,35.4605263 C21.9374482,35.4605263 23.4501294,34.4390744 23.9545996,33.1790495 L27.8359584,23.4845054 Z" id="Combined-Shape" stroke-width="2"></path>
                                    <rect id="Rectangle-1" stroke-width="2" x="7.1875" y="39.3947368" width="15.625" height="2.57894737" rx="1.28947368"></rect>
                                    <rect id="Rectangle-1-Copy" stroke-width="2" x="6.875" y="44.9078947" width="16.25" height="2.57894737" rx="1.28947368"></rect>
                                    <path d="M10.0576051,51.208835 C9.87999328,50.7737548 10.1107068,50.4210526 10.5975592,50.4210526 L19.4024417,50.4210526 C19.8782619,50.4210526 20.1176034,50.7796442 19.9423958,51.208835 L19.7006061,51.801126 C19.4303104,52.4632458 18.6322879,53 17.9136528,53 L12.086348,53 C11.3697367,53 10.570668,52.4656404 10.2993948,51.801126 L10.0576051,51.208835 Z" id="Rectangle-1-Copy-2" stroke-width="2"></path>
                                    <path d="M15.5173245,31.3082233 C15.3179086,32.5150747 15.0959508,32.5051276 15.0165147,31.2757282 C15.0165147,31.2757282 14.53125,22.6940789 13.75,17.8585526 C12.96875,13.0230263 12.6562499,6.41447351 13.90625,12.5394737 C15.1562501,18.6644739 17.5,19.3092105 17.5,19.3092105 L15.5173245,31.3082233 Z" id="Path-1" stroke-width="1.5"></path>
                                </g>
                            </g>
                        </g>
                    </g>
                </g>
            </g>
        </g>
    </g>
</svg>