<?xml version="1.0" encoding="UTF-8" standalone="no"?>
<svg width="84px" height="84px" viewBox="0 0 84 84" version="1.1" xmlns="http://www.w3.org/2000/svg" xmlns:xlink="http://www.w3.org/1999/xlink">
    <!-- Generator: Sketch 3.8.3 (29802) - http://www.bohemiancoding.com/sketch -->
    <title>imagination</title>
    <desc>Created with Sketch.</desc>
    <defs>
        <path d="M38.0777344,23.7437194 C37.538785,24.326064 36.7560824,24.6924725 35.8850083,24.6924725 C34.2593086,24.6924725 32.9414186,23.4162215 32.9414186,21.8418861 C32.9414186,20.2675507 34.2593086,18.9912996 35.8850083,18.9912996 C36.1445085,18.9912996 36.3961658,19.0238182 36.635872,19.0848768 C37.1748214,18.5025322 37.957524,18.1361237 38.8285981,18.1361237 C40.4542978,18.1361237 41.7721878,19.4123747 41.7721878,20.9867101 C41.7721878,22.5610456 40.4542978,23.8372966 38.8285981,23.8372966 C38.5690979,23.8372966 38.3174406,23.8047781 38.0777344,23.7437194 Z" id="path-1"></path>
        <mask id="mask-2" maskContentUnits="userSpaceOnUse" maskUnits="objectBoundingBox" x="-2.43" y="-2.43" width="13.6907692" height="11.4163488">
            <rect x="30.5114186" y="15.7061237" width="13.6907692" height="11.4163488" fill="white"></rect>
            <use xlink:href="#path-1" fill="black"></use>
        </mask>
    </defs>
    <g id="powers" stroke="none" stroke-width="1" fill="none" fill-rule="evenodd">
        <g transform="translate(-141.000000, -184.000000)" id="icons" stroke="#254054">
            <g transform="translate(109.000000, 186.000000)">
                <g id="row1" transform="translate(18.000000, 0.000000)">
                    <g id="imagination" transform="translate(16.000000, 0.000000)">
                        <g>
                            <circle id="Oval-44" stroke-width="4" fill="#FFFFFF" cx="40" cy="40" r="40"></circle>
                            <g transform="translate(18.000000, 19.000000)" id="Combined-Shape">
                                <path d="M37.31,41.3773585 C38.4421837,41.3773585 39.36,40.4692568 39.36,39.3490566 C39.36,38.2288564 38.4421837,37.3207547 37.31,37.3207547 C36.1778163,37.3207547 35.26,38.2288564 35.26,39.3490566 C35.26,40.4692568 36.1778163,41.3773585 37.31,41.3773585 Z" stroke-width="2.43" transform="translate(37.310000, 39.349057) rotate(48.000000) translate(-37.310000, -39.349057) "></path>
                                <use mask="url(#mask-2)" stroke-width="4.86" transform="translate(37.356803, 21.414298) rotate(35.000000) translate(-37.356803, -21.414298) " xlink:href="#path-1"></use>
                                <path d="M10.7199225,20.646393 C9.68931417,21.2032706 8.50701584,21.5197883 7.25,21.5197883 C3.24593556,21.5197883 0,18.3082092 0,14.3465255 C0,10.3848419 3.24593556,7.17326277 7.25,7.17326277 C7.25,3.21157914 10.4959356,0 14.5,0 C18.5040644,0 21.75,3.21157914 21.75,7.17326277 C21.75,8.4169738 21.4300963,9.58675815 20.8672614,10.606458 C22.6354525,11.9145643 23.78,14.0025547 23.78,16.3550391 C23.78,20.3167228 20.5340644,23.5283019 16.53,23.5283019 C14.1523495,23.5283019 12.0420224,22.3958688 10.7199225,20.646393 Z" stroke-width="2.43"></path>
                            </g>
                        </g>
                    </g>
                </g>
            </g>
        </g>
    </g>
</svg>