<?xml version="1.0" encoding="UTF-8" standalone="no"?>
<svg width="84px" height="84px" viewBox="0 0 84 84" version="1.1" xmlns="http://www.w3.org/2000/svg" xmlns:xlink="http://www.w3.org/1999/xlink">
    <!-- Generator: Sketch 3.8.3 (29802) - http://www.bohemiancoding.com/sketch -->
    <title>leadership</title>
    <desc>Created with Sketch.</desc>
    <defs>
        <path d="M9.02870664,14.2972973 L7.20285421,14.2972973 C5.08456763,14.2972973 2.95839838,15.9660799 2.45364296,18.0246275 L0.253854624,26.9960402 C-0.25172655,29.0579555 1.0554101,30.7233704 3.17158167,30.7233704 L23.7019323,30.7233704 C25.8123994,30.7233704 27.1244148,29.0545878 26.6196594,26.9960402 L24.419871,18.0246275 C23.9142898,15.9627122 21.7888213,14.2972973 19.6706598,14.2972973 L17.5539114,14.2972973 C16.417894,15.2709151 14.925651,15.8616852 13.291309,15.8616852 C11.656967,15.8616852 10.164724,15.2709151 9.02870664,14.2972973 Z" id="path-1"></path>
        <mask id="mask-2" maskContentUnits="userSpaceOnUse" maskUnits="objectBoundingBox" x="0" y="0" width="26.5825361" height="16.4260731" fill="white">
            <use xlink:href="#path-1"></use>
        </mask>
        <path d="M5.91367923,9.59846547 L4.75347231,9.59846547 C3.48009929,9.59846547 2.20633063,10.6049494 1.9043816,11.8465103 L0.534351179,17.4798325 C0.232838764,18.7195981 1.02084438,19.7278772 2.29538619,19.7278772 L14.924254,19.7278772 C16.2049431,19.7278772 16.987238,18.7213933 16.685289,17.4798325 L15.3152586,11.8465103 C15.0137461,10.6067447 13.7377282,9.59846547 12.4661679,9.59846547 L11.1280373,9.59846547 C10.4332034,10.1988631 9.52048754,10.5631714 8.52085825,10.5631714 C7.52122896,10.5631714 6.60851313,10.1988631 5.91367923,9.59846547 Z" id="path-3"></path>
        <mask id="mask-4" maskContentUnits="userSpaceOnUse" maskUnits="objectBoundingBox" x="0" y="0" width="16.2799602" height="10.1294118" fill="white">
            <use xlink:href="#path-3"></use>
        </mask>
        <path d="M5.52232004,9.59846547 L4.36211312,9.59846547 C3.0887401,9.59846547 1.81497143,10.6049494 1.51302241,11.8465103 L0.142991986,17.4798325 C-0.158520429,18.7195981 0.629485192,19.7278772 1.90402699,19.7278772 L14.5328948,19.7278772 C15.8135839,19.7278772 16.5958788,18.7213933 16.2939298,17.4798325 L14.9238994,11.8465103 C14.622387,10.6067447 13.346369,9.59846547 12.0748087,9.59846547 L10.7366781,9.59846547 C10.0418442,10.1988631 9.12912835,10.5631714 8.12949906,10.5631714 C7.12986977,10.5631714 6.21715394,10.1988631 5.52232004,9.59846547 Z" id="path-5"></path>
        <mask id="mask-6" maskContentUnits="userSpaceOnUse" maskUnits="objectBoundingBox" x="0" y="0" width="16.2799602" height="10.1294118" fill="white">
            <use xlink:href="#path-5"></use>
        </mask>
    </defs>
    <g id="powers" stroke="none" stroke-width="1" fill="none" fill-rule="evenodd">
        <g transform="translate(-138.000000, -794.000000)" id="icons" stroke="#254054">
            <g transform="translate(109.000000, 186.000000)">
                <g id="row4" transform="translate(19.000000, 610.000000)">
                    <g id="leadership">
                        <g transform="translate(12.000000, 0.000000)">
                            <circle id="Oval-44" stroke-width="4" fill="#FFFFFF" cx="40" cy="40" r="40"></circle>
                            <g transform="translate(10.000000, 24.000000)" id="person">
                                <g transform="translate(16.000000, 4.000000)">
                                    <ellipse id="Oval-19-Copy-2" stroke-width="2" cx="13.4368913" cy="6.25755167" rx="6.14257889" ry="6.25755167"></ellipse>
                                    <use id="Combined-Shape-Copy" mask="url(#mask-2)" stroke-width="4" xlink:href="#path-1"></use>
                                </g>
                                <g transform="translate(42.000000, 0.000000)">
                                    <ellipse id="Oval-19-Copy-2" stroke-width="2" cx="8.60990224" cy="3.85882353" rx="3.75704825" ry="3.85882353"></ellipse>
                                    <use id="Combined-Shape-Copy" mask="url(#mask-4)" stroke-width="4" xlink:href="#path-3"></use>
                                </g>
                                <g>
                                    <ellipse id="Oval-19-Copy-2" stroke-width="2" cx="8.21854305" cy="3.85882353" rx="3.75704825" ry="3.85882353"></ellipse>
                                    <use id="Combined-Shape-Copy" mask="url(#mask-6)" stroke-width="4" xlink:href="#path-5"></use>
                                </g>
                            </g>
                        </g>
                    </g>
                </g>
            </g>
        </g>
    </g>
</svg>