<?xml version="1.0" encoding="UTF-8" standalone="no"?>
<svg width="84px" height="85px" viewBox="0 0 84 85" version="1.1" xmlns="http://www.w3.org/2000/svg" xmlns:xlink="http://www.w3.org/1999/xlink">
    <!-- Generator: Sketch 3.8.3 (29802) - http://www.bohemiancoding.com/sketch -->
    <title>teamwork</title>
    <desc>Created with Sketch.</desc>
    <defs>
        <path d="M7.71603255,10.9563353 L5.92919606,10.9563353 C4.51213867,10.9563353 3.0609619,12.0830833 2.71322839,13.4729975 L0.861137172,20.8759304 C0.513108654,22.2670237 1.38836665,23.3925926 2.81542172,23.3925926 L19.4270178,23.3925926 C20.8553506,23.3925926 21.7290359,22.2658445 21.3813024,20.8759304 L19.5292111,13.4729975 C19.1811826,12.0819042 17.7416399,10.9563353 16.3132435,10.9563353 L14.301692,10.9563353 C13.4241267,11.6934659 12.2713797,12.1407407 11.0088623,12.1407407 C9.7463448,12.1407407 8.5935978,11.6934659 7.71603255,10.9563353 Z" id="path-1"></path>
        <mask id="mask-2" maskContentUnits="userSpaceOnUse" maskUnits="objectBoundingBox" x="0" y="0" width="20.6727761" height="12.4362573" fill="white">
            <use xlink:href="#path-1"></use>
        </mask>
        <path d="M7.71603255,10.9563353 L5.92919606,10.9563353 C4.51213867,10.9563353 3.0609619,12.0830833 2.71322839,13.4729975 L0.861137172,20.8759304 C0.513108654,22.2670237 1.38836665,23.3925926 2.81542172,23.3925926 L19.4270178,23.3925926 C20.8553506,23.3925926 21.7290359,22.2658445 21.3813024,20.8759304 L19.5292111,13.4729975 C19.1811826,12.0819042 17.7416399,10.9563353 16.3132435,10.9563353 L14.301692,10.9563353 C13.4241267,11.6934659 12.2713797,12.1407407 11.0088623,12.1407407 C9.7463448,12.1407407 8.5935978,11.6934659 7.71603255,10.9563353 Z" id="path-3"></path>
        <mask id="mask-4" maskContentUnits="userSpaceOnUse" maskUnits="objectBoundingBox" x="0" y="0" width="20.6727761" height="12.4362573" fill="white">
            <use xlink:href="#path-3"></use>
        </mask>
    </defs>
    <g id="powers" stroke="none" stroke-width="1" fill="none" fill-rule="evenodd">
        <g transform="translate(-443.000000, -387.000000)" id="icons" stroke="#254054">
            <g transform="translate(109.000000, 186.000000)">
                <g id="row2" transform="translate(0.000000, 203.333333)">
                    <g id="teamwork" transform="translate(327.000000, 0.000000)">
                        <g transform="translate(9.000000, 0.000000)">
                            <circle id="Oval-44" stroke-width="4" fill="#FFFFFF" cx="40" cy="40" r="40"></circle>
                            <g transform="translate(15.000000, 18.000000)">
                                <g id="Group-2" transform="translate(0.000000, 10.000000)">
                                    <ellipse id="Oval-19-Copy" stroke-width="2" cx="11.1213235" cy="4.73762183" rx="4.74509804" ry="4.73762183"></ellipse>
                                    <use id="Combined-Shape" mask="url(#mask-2)" stroke-width="4" xlink:href="#path-1"></use>
                                </g>
                                <g id="Group" transform="translate(29.000000, 10.000000)">
                                    <ellipse id="Oval-19-Copy-2" stroke-width="2" cx="11.1213235" cy="4.73762183" rx="4.74509804" ry="4.73762183"></ellipse>
                                    <use id="Combined-Shape-Copy" mask="url(#mask-4)" stroke-width="4" xlink:href="#path-3"></use>
                                </g>
                                <g id="Group-3" transform="translate(13.000000, 0.000000)" stroke-width="2" stroke-linecap="round">
                                    <path d="M0,5.01052632 C0,5.01052632 10.5459556,-6.18947358 22.5007142,5.01052632" id="Path-3"></path>
                                    <polyline id="Path-4" points="22.483656 1.91578947 22.9216493 5.45263158 19.7096984 5.6"></polyline>
                                </g>
                                <g id="Group-3-Copy" transform="translate(24.500000, 43.000000) scale(-1, -1) translate(-24.500000, -43.000000) translate(13.000000, 40.000000)" stroke-width="2" stroke-linecap="round">
                                    <path d="M0,5.01052632 C0,5.01052632 10.5459556,-6.18947358 22.5007142,5.01052632" id="Path-3"></path>
                                    <polyline id="Path-4" points="22.483656 1.91578947 22.9216493 5.45263158 19.7096984 5.6"></polyline>
                                </g>
                            </g>
                        </g>
                    </g>
                </g>
            </g>
        </g>
    </g>
</svg>