<?xml version="1.0" encoding="UTF-8" standalone="no"?>
<svg width="84px" height="85px" viewBox="0 0 84 85" version="1.1" xmlns="http://www.w3.org/2000/svg" xmlns:xlink="http://www.w3.org/1999/xlink">
    <!-- Generator: Sketch 3.8.3 (29802) - http://www.bohemiancoding.com/sketch -->
    <title>communication</title>
    <desc>Created with Sketch.</desc>
    <defs></defs>
    <g id="powers" stroke="none" stroke-width="1" fill="none" fill-rule="evenodd">
        <g transform="translate(-140.000000, -387.000000)" id="icons" stroke="#254054">
            <g transform="translate(109.000000, 186.000000)">
                <g id="row2" transform="translate(0.000000, 203.333333)">
                    <g id="communication">
                        <g transform="translate(33.000000, 0.000000)">
                            <circle id="Oval-44" stroke-width="4" fill="#FFFFFF" cx="40" cy="40" r="40"></circle>
                            <g transform="translate(18.000000, 25.000000)" stroke-width="2.1">
                                <path d="M27.9576944,10.5751823 C29.3430935,10.1984208 30.835168,10 32.3772219,10 C39.1741024,10 45,13.8548481 45,19.8450805 C45,22.2749622 43.9614967,24.3809353 42.3057493,26.0259576 C41.6718251,26.6557756 43.2198646,29.8570267 42.3057481,30.6913556 C40.7443096,32.0262818 38.5583185,28.578956 37.6866351,28.9026929 C36.0177723,29.5224965 34.1974971,29.8570267 32.3772219,29.8570267 C26.7989134,29.8570267 21.2206049,26.715315 20,21.8495221 C24.5221263,20.4730388 28.1696293,17.0568397 28.1696293,12.5029866 C28.1696293,11.8328585 28.0967186,11.1894547 27.9576944,10.5751823 Z" id="Combined-Shape"></path>
                                <path d="M12.5,19.8570267 C14.3025699,19.8570267 16.1051398,19.5224965 17.7577701,18.9026929 C18.6209749,18.578956 20.7857034,22.0262818 22.3319543,20.6913556 C23.2371795,19.8570267 21.7041972,16.6557756 22.3319555,16.0259576 C23.9715979,14.3809353 25,12.2749622 25,9.84508049 C25,3.85484815 19.2307692,6.49733366e-16 12.5,0 C5.76923077,-6.82220065e-16 0,3.85484815 0,9.84508049 C0,15.8353128 6.25,19.8570267 12.5,19.8570267 Z" id="Oval-49-Copy" transform="translate(12.500000, 10.500000) scale(-1, 1) translate(-12.500000, -10.500000) "></path>
                            </g>
                        </g>
                    </g>
                </g>
            </g>
        </g>
    </g>
</svg>