<?xml version="1.0" encoding="UTF-8" standalone="no"?>
<svg width="84px" height="84px" viewBox="0 0 84 84" version="1.1" xmlns="http://www.w3.org/2000/svg" xmlns:xlink="http://www.w3.org/1999/xlink">
    <!-- Generator: Sketch 3.8.3 (29802) - http://www.bohemiancoding.com/sketch -->
    <title>courage</title>
    <desc>Created with Sketch.</desc>
    <defs></defs>
    <g id="powers" stroke="none" stroke-width="1" fill="none" fill-rule="evenodd">
        <g transform="translate(-1057.000000, -184.000000)" id="icons" stroke="#254054">
            <g transform="translate(109.000000, 186.000000)">
                <g id="row1" transform="translate(18.000000, 0.000000)">
                    <g id="courage" transform="translate(932.000000, 0.000000)">
                        <g>
                            <circle id="Oval-44" stroke-width="4" fill="#FFFFFF" cx="40" cy="40" r="40"></circle>
                            <g transform="translate(23.000000, 13.000000)" stroke-width="2">
                                <path d="M15.4587828,33.5728505 L10.0507448,53.7559232 L6.15801372,49.2498131 L0.53375465,51.2058534 L5.9759636,30.8952531 C8.26106221,32.6113821 11.1101634,33.6297218 14.1994984,33.6297218 C14.6240776,33.6297218 15.0441192,33.6104874 15.4587828,33.5728505 Z" id="Combined-Shape" transform="translate(7.993658, 42.328514) rotate(2.000000) translate(-7.993658, -42.328514) "></path>
                                <path d="M18.2986776,39.4279735 L22.1576456,53.829838 L26.0503766,49.3237278 L31.6746357,51.2797682 L26.3258629,31.3178764 C24.4530407,32.6000967 22.2398835,33.4296438 19.8477477,33.6467653 L18.2986776,39.4279735 Z" id="Combined-Shape"></path>
                                <ellipse id="Oval-13-Copy-4" cx="16.5284998" cy="15.1050323" rx="9.47150023" ry="9.37735725"></ellipse>
                                <ellipse id="Oval-13-Copy-5" cx="16.6484268" cy="15.2038881" rx="15.1713406" ry="15.0205435"></ellipse>
                            </g>
                        </g>
                    </g>
                </g>
            </g>
        </g>
    </g>
</svg>