<?xml version="1.0" encoding="UTF-8" standalone="no"?>
<svg width="84px" height="85px" viewBox="0 0 84 85" version="1.1" xmlns="http://www.w3.org/2000/svg" xmlns:xlink="http://www.w3.org/1999/xlink">
    <!-- Generator: Sketch 3.8.3 (29802) - http://www.bohemiancoding.com/sketch -->
    <title>critical_reflection</title>
    <desc>Created with Sketch.</desc>
    <defs></defs>
    <g id="powers" stroke="none" stroke-width="1" fill="none" fill-rule="evenodd">
        <g transform="translate(-1063.000000, -590.000000)" id="icons" stroke="#254054">
            <g transform="translate(109.000000, 186.000000)">
                <g id="row3" transform="translate(2.000000, 406.666667)">
                    <g id="critical-reflection" transform="translate(910.000000, 0.000000)">
                        <g id="critical_reflection" transform="translate(44.000000, 0.000000)">
                            <circle id="Oval-44" stroke-width="4" fill="#FFFFFF" cx="40" cy="40" r="40"></circle>
                            <g id="critical-reflection" transform="translate(28.000000, 9.000000)" stroke-width="2">
                                <path d="M18.8934592,4.064287 C18.5615172,1.78276394 15.7036312,0 12.2271994,0 C8.75076772,0 5.89288165,1.78276394 5.56093969,4.064287 C2.29253492,6.0768945 -0.00646480741,10.8622828 -0.00646480741,16.4453292 C-0.00646480741,22.0619634 2.3202798,26.8713131 5.62003304,28.8623936 C6.14825372,30.9976621 8.90534564,32.6254112 12.2271994,32.6254112 C15.5490533,32.6254112 18.3061452,30.9976621 18.8343659,28.8623936 C22.1341191,26.8713131 24.4608637,22.0619634 24.4608637,16.4453292 C24.4608637,10.8622828 22.161864,6.0768945 18.8934592,4.064287 Z" id="Combined-Shape"></path>
                                <ellipse id="Oval-35" cx="12" cy="16" rx="8" ry="10"></ellipse>
                                <path d="M14.1756589,33.0604717 C14.324479,33.3336414 14.4090909,33.6484417 14.4090909,33.9855264 L14.4090909,45.5063288 C15.3668848,46.1318749 16,47.2125315 16,48.4324849 L16,58.5062226 C16,60.4357826 14.4290634,62 12.5,62 C10.5670034,62 9,60.425496 9,58.5062226 L9,48.4324849 C9,47.2067344 9.63393716,46.1284147 10.5909091,45.5048557 L10.5909091,33.9855264 C10.5909091,33.6438948 10.6790835,33.3231289 10.8341838,33.0453159 C11.3814824,33.1399253 11.9566591,33.1903613 12.5500373,33.1903613 C13.1108961,33.1903613 13.6554937,33.145302 14.1756589,33.0604717 Z" id="Combined-Shape"></path>
                                <path d="M12.6250457,18.806298 L9,15" id="Path-31" stroke-linecap="round"></path>
                                <path d="M14.5000315,15.6250331 L12,13" id="Path-31-Copy" stroke-linecap="round"></path>
                            </g>
                        </g>
                    </g>
                </g>
            </g>
        </g>
    </g>
</svg>