<?xml version="1.0" encoding="UTF-8" standalone="no"?>
<svg width="84px" height="85px" viewBox="0 0 84 85" version="1.1" xmlns="http://www.w3.org/2000/svg" xmlns:xlink="http://www.w3.org/1999/xlink">
    <!-- Generator: Sketch 3.8.3 (29802) - http://www.bohemiancoding.com/sketch -->
    <title>problem_solver</title>
    <desc>Created with Sketch.</desc>
    <defs>
        <path d="M51.5243801,48.8455259 L56.9905917,43.3793143 C58.0865372,42.2833687 58.0862742,40.5103182 56.9925277,39.4165717 L51.8563181,34.2803621 L51.8563181,34.2754291 C51.8961817,32.1687721 53.1394928,30.3548072 54.9313429,29.4846424 C55.0286499,29.4905232 55.1267439,29.4935065 55.2255387,29.4935065 C57.8624009,29.4935065 60,27.3683127 60,24.7467532 C60,22.1251938 57.8624009,20 55.2255387,20 C52.5886765,20 50.4510774,22.1251938 50.4510774,24.7467532 C50.4510774,24.9257719 50.4610453,25.1024759 50.4804594,25.2763466 C49.6538713,26.9962344 47.946117,28.2173695 45.9381379,28.3621819 L39.4937265,21.9177706 C38.3945729,20.8186169 36.6257998,20.8248908 35.530984,21.9197066 L30.1772514,27.2734392 C30.2357139,29.37578 31.4928442,31.1803166 33.2934961,32.035705 C33.4683818,32.0164035 33.6461173,32.0064935 33.8261809,32.0064935 C36.463043,32.0064935 38.6006422,34.1316873 38.6006422,36.7532468 C38.6006422,39.3748062 36.463043,41.5 33.8261809,41.5 C31.1893187,41.5 29.0517196,39.3748062 29.0517196,36.7532468 C29.0517196,36.6550253 29.0547202,36.5575005 29.0606354,36.4607583 C28.1853912,34.679307 26.5782665,33.1785213 24.4593124,33.1388892 L24.362636,33.0880546 L17.9107895,39.5399011 C16.814844,40.6358466 16.815107,42.4088971 17.9088535,43.5026436 L35.4076547,61.0014448 C36.5068083,62.1005984 38.2755814,62.0943245 39.3703972,60.9995087 L45.4663269,54.9035791 L45.5865341,54.9035791 C47.7054883,54.9432113 49.5300417,56.179307 50.4052859,57.9607583 C50.3993707,58.0575005 50.3963701,58.1550253 50.3963701,58.2532468 C50.3963701,60.8748062 52.5339692,63 55.1708314,63 C57.8076935,63 59.9452927,60.8748062 59.9452927,58.2532468 C59.9452927,55.6316873 57.8076935,53.5064935 55.1708314,53.5064935 C54.9907678,53.5064935 54.8130323,53.5164035 54.6381466,53.535705 C52.8581091,52.6901093 51.6092196,50.9169733 51.5243801,48.8455259 Z" id="path-1"></path>
        <mask id="mask-2" maskContentUnits="userSpaceOnUse" maskUnits="objectBoundingBox" x="0" y="0" width="43" height="43" fill="white">
            <use xlink:href="#path-1"></use>
        </mask>
    </defs>
    <g id="powers" stroke="none" stroke-width="1" fill="none" fill-rule="evenodd">
        <g transform="translate(-141.000000, -590.000000)" id="icons" stroke-width="4" stroke="#254054">
            <g transform="translate(109.000000, 186.000000)">
                <g id="row3" transform="translate(2.000000, 406.666667)">
                    <g id="problem-solver">
                        <g transform="translate(32.000000, 0.000000)" id="problem_solver">
                            <g>
                                <circle id="Oval-44" fill="#FFFFFF" cx="40" cy="40" r="40"></circle>
                                <use id="Combined-Shape" mask="url(#mask-2)" xlink:href="#path-1"></use>
                            </g>
                        </g>
                    </g>
                </g>
            </g>
        </g>
    </g>
</svg>