<?xml version="1.0" encoding="UTF-8" standalone="no"?>
<svg width="400px" height="400px" viewBox="0 0 400 400" version="1.1" xmlns="http://www.w3.org/2000/svg" xmlns:xlink="http://www.w3.org/1999/xlink">
    <!-- Generator: Sketch 3.8.3 (29802) - http://www.bohemiancoding.com/sketch -->
    <title>systems_thinker</title>
    <desc>Created with Sketch.</desc>
    <defs></defs>
    <g id="super-powers" stroke="none" stroke-width="1" fill="none" fill-rule="evenodd">
        <g id="systems_thinker" stroke="#254054" stroke-width="4.4">
            <g id="Group" transform="translate(92.000000, 83.000000)">
                <path d="M56.8045104,85.1152897 C56.8045104,85.1152897 104.674944,79.3398393 122.60384,106.818174 C140.532735,134.296508 163.710829,132.046442 177.077285,125.613669 C190.443742,119.180896 206.149117,103.163572 195.448071,66.8113818 C184.747025,30.4591915 155.345888,15.3744791 110.382919,14.5626576 C65.41995,13.750836 44.1698458,18.9728993 34.8085417,51.5862159 C25.4472375,84.1995325 56.8045104,85.1152897 56.8045104,85.1152897 Z" id="Path-2"></path>
                <path d="M87.1688742,224.48651 C88.6592404,229.085349 93.5205019,231.347854 98.0323913,229.53355 C98.0323913,229.53355 167.751311,201.632012 174.037535,197.746404 C180.32376,193.860796 171.588848,190.904911 174.592008,180.44393 C177.595169,169.982949 178.501465,155.089253 197.150894,135.757225 C215.800323,116.425197 217.652319,83.4467014 211.606594,64.333781 C205.560869,45.2208606 190.044071,17.3885832 146.944356,5.43036711 C103.844642,-6.52784897 57.7333229,3.11288337 35.2898354,23.4786495 C12.8463479,43.8444157 9.47729167,75.3116312 13.2319458,88.0900961 C16.9866,100.868561 20.7102938,108.424963 11.2589229,125.728841 C1.80755208,143.03272 -2.37914063,143.035529 1.68089583,147.74915 C5.65368021,152.323723 6.84565625,148.249165 12.73095,151.965566 C18.6162438,155.681967 12.5094056,162.945001 14.3268188,166.703358 C16.1442319,170.461716 22.8606354,168.452005 22.1091417,171.359394 C21.8957971,172.184784 22.2569073,174.697975 22.2569073,174.697975 C22.2569073,174.697975 15.922306,180.287224 19.8687333,184.076059 C26.0200052,188.491919 26.5674417,189.595884 25.8159479,201.253529 C25.0644542,212.911175 39.2978021,216.756793 63.427225,213.630297 C87.5566479,210.503801 87.1688742,224.48651 87.1688742,224.48651 Z" id="Path-3"></path>
                <path d="M99.667,54.2265931 L99.667,56.8880374 C99.667,57.5550618 99.1723333,58.1189553 98.5096667,58.2071156 L92.5893333,58.9949031 C92.2273333,60.4959577 91.6363333,61.9078538 90.8503333,63.1886738 L94.4773333,67.9223851 C94.8833333,68.4520125 94.8333333,69.1998783 94.3606667,69.6716193 L92.4753333,71.553593 C92.217,71.8117531 91.8753333,71.9434946 91.5323333,71.9434946 C91.248,71.9434946 90.963,71.8533382 90.7226667,71.6700312 L85.9796667,68.0498017 C84.696,68.8339297 83.2816667,69.424105 81.778,69.785396 L80.9886667,75.6941348 C80.9003333,76.355171 80.3353333,76.8492016 79.667,76.8492016 L77.0003333,76.8492016 C76.332,76.8492016 75.767,76.3555037 75.6786667,75.6941348 L74.8893333,69.785396 C73.3853333,69.424105 71.9706667,68.8342624 70.6873333,68.0498017 L65.9443333,71.6696985 C65.704,71.8530055 65.419,71.9431619 65.1346667,71.9431619 C64.7916667,71.9431619 64.45,71.8114204 64.1916667,71.5532603 L62.306,69.6716193 C61.8333333,69.200211 61.7836667,68.4523451 62.1893333,67.9223851 L65.8166667,63.1886738 C65.031,61.9075211 64.4396667,60.4959577 64.0776667,58.9952358 L58.1573333,58.2074483 C57.495,58.119288 57,57.5553945 57,56.88837 L57,54.2269258 C57,53.5599014 57.4946667,52.9960079 58.1573333,52.9078475 L64.0776667,52.1200601 C64.4396667,50.6190055 65.0306667,49.207442 65.8166667,47.926622 L62.1893333,43.1929108 C61.7833333,42.6629507 61.8333333,41.9150849 62.306,41.4436766 L64.1916667,39.5617029 C64.45,39.3035428 64.7916667,39.1718013 65.1346667,39.1718013 C65.419,39.1718013 65.704,39.2619577 65.9443333,39.4452647 L70.6873333,43.0654942 C71.971,42.2813662 73.3853333,41.6911909 74.889,41.3298999 L75.6783333,35.421161 C75.7666667,34.7601248 76.3316667,34.2660942 77,34.2660942 L79.6666667,34.2660942 C80.335,34.2660942 80.9,34.7597921 80.9883333,35.421161 L81.7776667,41.3298999 C83.2816667,41.6911909 84.696,42.2810335 85.9793333,43.0654942 L90.7223333,39.4452647 C90.9626667,39.261625 91.2476667,39.1718013 91.532,39.1718013 C91.875,39.1718013 92.2166667,39.3035428 92.475,39.5617029 L94.3606667,41.4436766 C94.8333333,41.9150849 94.883,42.6632834 94.4773333,43.1929108 L90.85,47.926622 C91.6356667,49.2077747 92.227,50.6193382 92.589,52.1200601 L98.5093333,52.9078475 C99.1723333,52.9956752 99.667,53.5595687 99.667,54.2265931 L99.667,54.2265931 Z M78.3336667,63.5416479 C82.752,63.5416479 86.3336667,59.9669956 86.3336667,55.5573153 C86.3336667,51.1476349 82.752,47.5729826 78.3336667,47.5729826 C73.9153333,47.5729826 70.3336667,51.1476349 70.3336667,55.5573153 C70.3336667,59.9669956 73.9153333,63.5416479 78.3336667,63.5416479 L78.3336667,63.5416479 Z" id="Shape" transform="translate(78.333500, 55.557648) rotate(14.000000) translate(-78.333500, -55.557648) "></path>
                <path d="M177.527638,94.0092121 L177.527638,96.6706563 C177.527638,97.3376808 177.032971,97.9015743 176.370304,97.9897346 L170.449971,98.7775221 C170.087971,100.278577 169.496971,101.690473 168.710971,102.971293 L172.337971,107.705004 C172.743971,108.234631 172.693971,108.982497 172.221304,109.454238 L170.335971,111.336212 C170.077638,111.594372 169.735971,111.726114 169.392971,111.726114 C169.108638,111.726114 168.823638,111.635957 168.583304,111.45265 L163.840304,107.832421 C162.556638,108.616549 161.142304,109.206724 159.638638,109.568015 L158.849304,115.476754 C158.760971,116.13779 158.195971,116.631821 157.527638,116.631821 L154.860971,116.631821 C154.192638,116.631821 153.627638,116.138123 153.539304,115.476754 L152.749971,109.568015 C151.245971,109.206724 149.831304,108.616881 148.547971,107.832421 L143.804971,111.452317 C143.564638,111.635624 143.279638,111.725781 142.995304,111.725781 C142.652304,111.725781 142.310638,111.594039 142.052304,111.335879 L140.166638,109.454238 C139.693971,108.98283 139.644304,108.234964 140.049971,107.705004 L143.677304,102.971293 C142.891638,101.69014 142.300304,100.278577 141.938304,98.7778548 L136.017971,97.9900673 C135.355638,97.9019069 134.860638,97.3380134 134.860638,96.670989 L134.860638,94.0095448 C134.860638,93.3425203 135.355304,92.7786268 136.017971,92.6904665 L141.938304,91.902679 C142.300304,90.4016245 142.891304,88.990061 143.677304,87.709241 L140.049971,82.9755297 C139.643971,82.4455697 139.693971,81.6977038 140.166638,81.2262955 L142.052304,79.3443218 C142.310638,79.0861617 142.652304,78.9544202 142.995304,78.9544202 C143.279638,78.9544202 143.564638,79.0445766 143.804971,79.2278836 L148.547971,82.8481131 C149.831638,82.0639851 151.245971,81.4738099 152.749638,81.1125188 L153.538971,75.20378 C153.627304,74.5427438 154.192304,74.0487132 154.860638,74.0487132 L157.527304,74.0487132 C158.195638,74.0487132 158.760638,74.5424111 158.848971,75.20378 L159.638304,81.1125188 C161.142304,81.4738099 162.556638,82.0636524 163.839971,82.8481131 L168.582971,79.2278836 C168.823304,79.044244 169.108304,78.9544202 169.392638,78.9544202 C169.735638,78.9544202 170.077304,79.0861617 170.335638,79.3443218 L172.221304,81.2262955 C172.693971,81.6977038 172.743638,82.4459023 172.337971,82.9755297 L168.710638,87.709241 C169.496304,88.9903937 170.087638,90.4019571 170.449638,91.902679 L176.369971,92.6904665 C177.032971,92.7782941 177.527638,93.3421876 177.527638,94.0092121 L177.527638,94.0092121 Z M156.194304,103.324267 C160.612638,103.324267 164.194304,99.7496146 164.194304,95.3399342 C164.194304,90.9302538 160.612638,87.3556016 156.194304,87.3556016 C151.775971,87.3556016 148.194304,90.9302538 148.194304,95.3399342 C148.194304,99.7496146 151.775971,103.324267 156.194304,103.324267 L156.194304,103.324267 Z" id="Shape-Copy-2" transform="translate(156.194138, 95.340267) rotate(7.000000) translate(-156.194138, -95.340267) "></path>
                <path d="M158.667109,49.1323134 L158.667109,52.667044 C158.667109,53.5529359 158.01013,54.3018569 157.130026,54.4189449 L149.267083,55.4652251 C148.786302,57.4588132 148.00138,59.3339878 146.957474,61.0350769 L151.774583,67.3220371 C152.313802,68.0254484 152.247396,69.0187077 151.619635,69.6452387 L149.115677,72.1447351 C148.772578,72.487604 148.318802,72.6625731 147.863255,72.6625731 C147.485625,72.6625731 147.107109,72.5428341 146.787917,72.2993796 L140.48862,67.4912623 C138.78375,68.5326823 136.905339,69.3165088 134.908281,69.7963485 L133.859948,77.6438922 C133.74263,78.5218309 132.99224,79.1779653 132.104609,79.1779653 L128.562943,79.1779653 C127.675313,79.1779653 126.924922,78.5222728 126.807604,77.6438922 L125.759271,69.7963485 C123.761771,69.3165088 121.882917,68.5331241 120.17849,67.4912623 L113.879193,72.2989377 C113.56,72.5423923 113.181484,72.6621313 112.803854,72.6621313 C112.348307,72.6621313 111.894531,72.4871621 111.551432,72.1442933 L109.047031,69.6452387 C108.419271,69.0191496 108.353307,68.0258903 108.892083,67.3220371 L113.709635,61.0350769 C112.666172,59.3335459 111.880807,57.4588132 111.400026,55.465667 L103.537083,54.4193867 C102.657422,54.3022988 102,53.5533777 102,52.6674859 L102,49.1327553 C102,48.2468634 102.656979,47.4979424 103.537083,47.3808544 L111.400026,46.3345742 C111.880807,44.3409861 112.665729,42.4662534 113.709635,40.7651643 L108.892083,34.4782041 C108.352865,33.7743508 108.419271,32.7810915 109.047031,32.1550024 L111.551432,29.655506 C111.894531,29.3126371 112.348307,29.137668 112.803854,29.137668 C113.181484,29.137668 113.56,29.257407 113.879193,29.5008615 L120.17849,34.3089788 C121.883359,33.2675588 123.761771,32.4837323 125.758828,32.0038926 L126.807161,24.1563489 C126.924479,23.2784102 127.67487,22.6222758 128.5625,22.6222758 L132.104167,22.6222758 C132.991797,22.6222758 133.742188,23.2779683 133.859505,24.1563489 L134.907839,32.0038926 C136.905339,32.4837323 138.78375,33.267117 140.488177,34.3089788 L146.787474,29.5008615 C147.106667,29.2569651 147.485182,29.137668 147.862813,29.137668 C148.318359,29.137668 148.772135,29.3126371 149.115234,29.655506 L151.619635,32.1550024 C152.247396,32.7810915 152.313359,33.7747927 151.774583,34.4782041 L146.957031,40.7651643 C148.000495,42.4666952 148.785859,44.3414279 149.266641,46.3345742 L157.129583,47.3808544 C158.01013,47.4975005 158.667109,48.2464216 158.667109,49.1323134 L158.667109,49.1323134 Z M130.333776,61.5038705 C136.201875,61.5038705 140.958776,56.7562855 140.958776,50.8996787 C140.958776,45.043072 136.201875,40.2954869 130.333776,40.2954869 C124.465677,40.2954869 119.708776,45.043072 119.708776,50.8996787 C119.708776,56.7562855 124.465677,61.5038705 130.333776,61.5038705 L130.333776,61.5038705 Z" id="Shape-Copy"></path>
            </g>
        </g>
    </g>
</svg>
