<?xml version="1.0" encoding="UTF-8" standalone="no"?>
<svg width="400px" height="400px" viewBox="0 0 400 400" version="1.1" xmlns="http://www.w3.org/2000/svg" xmlns:xlink="http://www.w3.org/1999/xlink">
    <!-- Generator: Sketch 3.8.3 (29802) - http://www.bohemiancoding.com/sketch -->
    <title>empathetic_activist</title>
    <desc>Created with Sketch.</desc>
    <defs></defs>
    <g id="super-powers" stroke="none" stroke-width="1" fill="none" fill-rule="evenodd">
        <g id="empathetic_activist" stroke-width="6" stroke="#254054">
            <g id="Group-3" transform="translate(119.000000, 54.000000)">
                <g id="Group">
                    <rect id="Rectangle-24" x="88.1893491" y="7.65562914" width="30.6308441" height="67.1763819" rx="15.3154221"></rect>
                    <rect id="Rectangle-24-Copy" x="124.615385" y="29.6655629" width="23.9070003" height="52.248297" rx="11.9535001"></rect>
                    <path d="M55.5976331,41.8013279 L55.5976331,14.1843709 C55.5976331,6.35055917 61.9511295,0 69.7924146,0 C77.6319759,0 83.987196,6.34668605 83.987196,14.1843709 L83.987196,48.8453208" id="Rectangle-24-Copy-2"></path>
                    <path d="M21.0887574,46.8982841 L21.4462534,24.9212688 C21.4462534,17.4997629 27.4653553,11.4834437 34.8939411,11.4834437 C42.3208939,11.4834437 48.3416287,17.4960937 48.3416287,24.9212688 L48.5838506,46.5833948" id="Rectangle-24-Copy-3"></path>
                    <path d="M3.83431953,62.9044227 C7.82969539,55.6806871 19.3648517,44.0198675 27.8248588,44.0198675 L68.6159567,44.0198675 C77.0805986,44.0198675 83.9425467,50.8604646 83.9425467,59.3037248 L83.9425467,60.8065416 C83.9425467,69.2475828 77.0759637,76.0903988 68.6159567,76.0903988 L33.7879561,80.3818134" id="Rectangle-24-Copy-4" stroke-linecap="round"></path>
                    <path d="M125.573964,196.22693 L125.573964,140.3749 C125.573964,140.3749 163.95007,136.30758 148.605464,73.6854305" id="Path-41" stroke-linecap="round"></path>
                    <path d="M106.157261,118.45822 C106.157261,118.45822 105.897298,89.2306729 79.5629785,84.0748732 C58.3536783,82.1623248 34.5088757,81.3410596 34.5088757,81.3410596" id="Path-43" stroke-linecap="round"></path>
                    <path d="M42.2667703,199.116626 L42.2667703,142.261616 C42.2667703,142.261616 2.41690597,132.916984 0.143523012,90.6139409 C-1.3572167,62.6882201 9.14014889,49.6206119 20.9220682,45.9337748" id="Combined-Shape" stroke-linecap="round"></path>
                </g>
                <g id="Group-2" transform="translate(3.834320, 137.887417)">
                    <path d="M79.425186,56.2777003 C76.2400296,47.8431737 67.1457478,42.8803493 59.648572,42.8803493 C44.5501856,42.8803493 37.7310258,50.6409375 38.7051914,63.7369302 C39.1552847,83.4578419 74.4150569,111.739171 79.8851345,114.899381 C79.8894417,115.023137 79.894062,115.107738 79.8990117,115.150827 C79.9067746,115.218405 80.0265403,115.196986 80.246664,115.092642 C80.4667878,115.196986 80.5865535,115.218405 80.5943164,115.150827 C80.5992661,115.107738 80.6038864,115.023137 80.6081936,114.899381 C86.0782711,111.739171 121.338043,83.4578419 121.788137,63.7369302 C122.762302,50.6409375 115.943143,42.8803493 100.844756,42.8803493 C93.3475802,42.8803493 84.2532985,47.8431737 81.0681421,56.2777003 L79.425186,56.2777003 Z" id="Combined-Shape"></path>
                    <path d="M139.952663,78.384106 L157.439237,78.384106" id="Path-21-Copy-3" stroke-linecap="round"></path>
                    <path d="M0,78.384106 L17.4865738,78.384106" id="Path-21-Copy-4" stroke-linecap="round"></path>
                    <g id="Group" transform="translate(15.131361, 0.000000)" stroke-linecap="round">
                        <path d="M63.8757396,17.494186 L63.8757396,0" id="Path-21"></path>
                        <path d="M116.946746,32.3801914 L129.330214,20.0099338" id="Path-21-Copy"></path>
                        <path d="M12.3834687,32.3801914 L4.61852778e-14,20.0099338" id="Path-21-Copy-2"></path>
                    </g>
                    <g id="Group-Copy" transform="translate(79.624852, 134.612583) rotate(-180.000000) translate(-79.624852, -134.612583) translate(14.624852, 116.112583)" stroke-linecap="round">
                        <path d="M65.8757396,17.494186 L65.8757396,-6.03961325e-14" id="Path-21"></path>
                        <path d="M116.946746,36.3801914 L129.330214,24.0099338" id="Path-21-Copy"></path>
                        <path d="M12.3834687,36.3801914 L5.41788836e-14,24.0099338" id="Path-21-Copy-2"></path>
                    </g>
                </g>
            </g>
        </g>
    </g>
</svg>